<?xml version="1.0" standalone="no"?>
<!DOCTYPE svg PUBLIC "-//W3C//DTD SVG 20010904//EN"
 "http://www.w3.org/TR/2001/REC-SVG-20010904/DTD/svg10.dtd">
<svg version="1.0" xmlns="http://www.w3.org/2000/svg"
 width="800.000000pt" height="800.000000pt" viewBox="0 0 800.000000 800.000000"
 preserveAspectRatio="xMidYMid meet">
<metadata>
Created by potrace 1.14, written by Peter Selinger 2001-2017
</metadata>
<g transform="translate(0.000000,800.000000) scale(0.100000,-0.100000)"
fill="#000000" stroke="none">
<path d="M3890 7657 c-3 -2 -61 -7 -130 -11 -69 -3 -136 -8 -150 -10 -14 -3
-54 -7 -90 -11 -36 -4 -72 -8 -80 -10 -8 -1 -33 -6 -55 -9 -67 -11 -306 -66
-380 -87 -479 -139 -918 -366 -1310 -678 -127 -102 -383 -350 -481 -466 -32
-38 -61 -72 -64 -75 -13 -12 -151 -201 -197 -270 -125 -188 -259 -439 -332
-620 -23 -58 -46 -114 -51 -125 -68 -154 -176 -588 -205 -830 -4 -27 -8 -61
-11 -75 -7 -46 -18 -274 -17 -395 0 -393 58 -754 182 -1133 35 -107 59 -173
81 -227 214 -520 532 -977 935 -1346 128 -117 341 -278 515 -389 393 -250 948
-455 1406 -519 217 -31 225 -31 499 -35 227 -3 410 6 550 29 22 3 69 11 104
16 36 5 67 12 70 14 4 2 27 6 51 10 61 8 285 67 400 105 294 96 613 248 875
418 298 193 624 489 849 770 102 128 306 426 306 448 0 7 3 14 8 16 18 8 146
266 217 438 74 180 160 462 195 635 5 28 12 61 15 75 3 14 7 39 10 55 3 17 10
53 15 80 41 219 49 740 14 990 -8 57 -33 215 -39 245 -4 21 -26 125 -30 140
-1 3 -5 21 -9 40 -100 449 -357 983 -664 1380 -36 47 -69 87 -72 90 -3 3 -34
39 -69 80 -107 126 -314 325 -461 441 -296 234 -588 405 -921 537 -171 68
-387 139 -477 157 -9 2 -44 10 -77 18 -33 9 -77 18 -97 21 -21 3 -57 10 -80
15 -24 5 -68 12 -98 16 -30 3 -62 8 -70 10 -8 2 -46 7 -85 10 -38 3 -83 8
-100 10 -55 7 -390 17 -395 12z"/>
</g>
</svg>
